<svg width="164" height="48" viewBox="0 0 164 48" fill="none" xmlns="http://www.w3.org/2000/svg">
<path d="M42.116 16.7003C37.2353 16.7003 33.4217 20.4054 33.4217 25.3654C33.4217 30.3254 37.1389 33.9988 42.116 33.9988C47.0931 33.9988 50.875 30.262 50.875 25.3337C50.875 20.4371 47.1577 16.7003 42.116 16.7003ZM42.1489 30.4242C39.3695 30.4242 37.3328 28.2656 37.3328 25.3666C37.3328 22.4348 39.3366 20.2774 42.116 20.2774C44.9283 20.2774 46.9638 22.4677 46.9638 25.3666C46.9638 28.2656 44.9283 30.4242 42.1489 30.4242ZM51.9409 20.47H54.3652V33.678H58.2435V17.0223H51.9409V20.47ZM23.6614 20.2761C25.6981 20.2761 27.314 21.5323 27.9275 23.4007H32.0326C31.2886 19.4066 27.9921 16.7003 23.6943 16.7003C18.8136 16.7003 15 20.4054 15 25.3666C15 30.3279 18.7173 34 23.6943 34C27.8958 34 31.2569 31.2938 32.0008 27.2667H27.9275C27.3457 29.1351 25.7298 30.4242 23.6931 30.4242C20.8808 30.4242 18.9099 28.2656 18.9099 25.3666C18.9112 22.4348 20.8503 20.2761 23.6614 20.2761ZM125.63 23.7556L122.786 23.3373C121.429 23.1446 120.459 22.6933 120.459 21.6299C120.459 20.47 121.72 19.8907 123.432 19.8907C125.307 19.8907 126.503 20.6957 126.762 22.0165H130.511C130.09 18.6663 127.504 16.7016 123.53 16.7016C119.425 16.7016 116.71 18.7956 116.71 21.7591C116.71 24.5934 118.488 26.2374 122.075 26.7521L124.919 27.1704C126.309 27.3631 127.085 27.9119 127.085 28.9424C127.085 30.2632 125.728 30.8108 123.853 30.8108C121.558 30.8108 120.265 29.8766 120.071 28.4595H116.257C116.614 31.7133 119.166 34 123.82 34C128.055 34 130.866 32.067 130.866 28.7485C130.866 25.7849 128.83 24.2385 125.63 23.7556ZM56.3044 10.161C54.8824 10.161 53.8155 11.1915 53.8155 12.6087C53.8155 14.0258 54.8812 15.0563 56.3044 15.0563C57.7264 15.0563 58.7936 14.0258 58.7936 12.6087C58.7936 11.1915 57.7264 10.161 56.3044 10.161ZM113.22 22.725C113.22 19.1175 111.022 16.7016 106.368 16.7016C101.973 16.7016 99.5163 18.9249 99.0311 22.3396H102.877C103.071 21.0189 104.106 19.9237 106.303 19.9237C108.276 19.9237 109.245 20.7932 109.245 21.8567C109.245 23.2422 107.467 23.5958 105.269 23.8215C102.296 24.1434 98.6115 25.1739 98.6115 29.04C98.6115 32.0365 100.842 33.9683 104.397 33.9683C107.176 33.9683 108.922 32.8085 109.795 30.9718C109.924 32.6146 111.153 33.678 112.866 33.678H115.128V30.2315H113.221V22.725H113.22ZM109.406 26.9131C109.406 29.1363 107.467 30.7791 105.107 30.7791C103.652 30.7791 102.424 30.1669 102.424 28.879C102.424 27.2362 104.396 26.785 106.206 26.5923C107.951 26.4313 108.921 26.0447 109.406 25.3032V26.9131ZM88.8184 16.7003C86.6524 16.7003 84.8426 17.6028 83.55 19.1163V10H79.6717V33.678H83.4851V31.4877C84.7777 33.0658 86.6209 34 88.8184 34C93.4721 34 96.9956 30.3279 96.9956 25.3666C96.9956 20.4054 93.4076 16.7003 88.8184 16.7003ZM88.2367 30.4242C85.4572 30.4242 83.4206 28.2656 83.4206 25.3666C83.4206 22.4677 85.4891 20.2774 88.2682 20.2774C91.0807 20.2774 93.0514 22.436 93.0514 25.3666C93.0514 28.2656 91.0159 30.4242 88.2367 30.4242ZM70.3954 16.7003C67.8746 16.7003 66.2257 17.7309 65.2564 19.1809V17.0223H61.4096V33.6768H65.2879V24.6252C65.2879 22.0799 66.9037 20.2761 69.2955 20.2761C71.526 20.2761 72.915 21.8543 72.915 24.1422V33.678H76.7932V23.8531C76.7947 19.6639 74.6299 16.7003 70.3954 16.7003ZM149.353 24.8191C149.353 20.0517 145.863 16.7016 141.176 16.7016C136.199 16.7016 132.546 20.4383 132.546 25.3666C132.546 30.5535 136.457 34 141.241 34C145.281 34 148.448 31.6157 149.256 28.2339H145.215C144.633 29.7156 143.211 30.5535 141.304 30.5535C138.815 30.5535 136.94 29.0071 136.521 26.3008H149.352V24.8191H149.353ZM136.747 23.53C137.362 21.2103 139.107 20.0835 141.111 20.0835C143.309 20.0835 144.99 21.3396 145.377 23.53H136.747Z" fill="#0052FF"/>
</svg>
