<svg width="164" height="48" viewBox="0 0 164 48" fill="none" xmlns="http://www.w3.org/2000/svg">
<path d="M59.9243 32.4265L61.3924 28.995C62.9999 30.1854 65.0966 30.8155 67.1937 30.8155C68.7315 30.8155 69.7099 30.2205 69.7099 29.3103C69.6749 26.7891 60.4486 28.7499 60.3784 22.4113C60.3434 19.1898 63.2094 16.7037 67.2639 16.7037C69.6749 16.7037 72.0868 17.2992 73.799 18.665L72.4271 22.1697C70.8518 21.1567 68.906 20.4504 67.0539 20.4504C65.7958 20.4504 64.9567 21.0454 64.9567 21.8163C64.9918 24.3024 74.2887 22.9366 74.3935 28.995C74.3935 32.2866 71.5971 34.5978 67.6128 34.5978C64.6775 34.5978 61.9864 33.8976 59.9238 32.4265H59.9243ZM118.382 27.7524C118.012 28.4109 117.473 28.9589 116.82 29.3403C116.168 29.7217 115.426 29.9227 114.671 29.9228C112.316 29.9228 110.407 28.0101 110.407 25.6508C110.407 23.2914 112.316 21.3787 114.671 21.3787C115.426 21.3788 116.168 21.5798 116.82 21.9612C117.473 22.3426 118.012 22.8906 118.382 23.5491L122.464 21.2835C120.935 18.5513 118.019 16.7037 114.671 16.7037C109.739 16.7037 105.741 20.7091 105.741 25.6508C105.741 30.5919 109.739 34.5978 114.671 34.5978C118.019 34.5978 120.935 32.7502 122.464 30.018L118.382 27.7524ZM77.042 34.2474H82.1446V9.25586H77.0425L77.042 34.2474ZM125.041 9.25586V34.2474H130.143V26.76L136.19 34.2474H142.712L135.023 25.3525L142.152 17.0526H135.91L130.143 23.9531V9.25586H125.041ZM97.8648 17.0536V19.0851C97.0262 17.6841 94.9642 16.7037 92.7973 16.7037C88.3238 16.7037 84.7941 20.661 84.7941 25.6332C84.7941 30.6055 88.3238 34.5978 92.7973 34.5978C94.9642 34.5978 97.0262 33.6174 97.8648 32.2164V34.2474H102.967V17.0536H97.8648ZM97.8648 27.787C97.131 29.0125 95.5932 29.9223 93.881 29.9223C91.5257 29.9223 89.617 28.0101 89.617 25.6508C89.617 23.2914 91.5257 21.3787 93.881 21.3787C95.5932 21.3787 97.131 22.3241 97.8648 23.5842V27.787Z" fill="#0F1224"/>
<path d="M32.978 8.70312C31.3245 8.70312 29.9842 10.0464 29.9842 11.703C29.9838 12.0966 30.0609 12.4864 30.2111 12.8501C30.3614 13.2139 30.5818 13.5444 30.8598 13.823C31.1378 14.1016 31.468 14.3227 31.8314 14.4736C32.1949 14.6246 32.5845 14.7025 32.978 14.7029H35.9724V11.703C35.9731 10.9081 35.658 10.1456 35.0965 9.58299C34.5349 9.02041 33.7729 8.70392 32.978 8.70312ZM32.978 16.7028H24.9939C23.3403 16.7028 22 18.0461 22 19.7032C22 21.3598 23.3403 22.7031 24.9939 22.7031H32.9785C34.6316 22.7031 35.9724 21.3598 35.9724 19.7032C35.9724 18.0461 34.6316 16.7028 32.978 16.7028Z" fill="#36C5F0"/>
<path d="M51.9412 19.7032C51.9412 18.0461 50.6004 16.7028 48.9468 16.7028C47.2932 16.7028 45.9529 18.0461 45.9529 19.7032V22.7031H48.9468C49.7417 22.7023 50.5037 22.3858 51.0652 21.8233C51.6268 21.2607 51.9418 20.4981 51.9412 19.7032ZM43.957 19.7032V11.703C43.9577 10.9081 43.6426 10.1456 43.081 9.58299C42.5195 9.02041 41.7575 8.70392 40.9626 8.70312C39.3091 8.70312 37.9688 10.0464 37.9688 11.703V19.7027C37.9688 21.3603 39.3091 22.7036 40.9626 22.7036C41.7575 22.7028 42.5195 22.3863 43.081 21.8238C43.6426 21.2612 43.9577 20.4986 43.957 19.7037" fill="#2EB67D"/>
<path d="M40.9626 38.7031C41.7575 38.7023 42.5195 38.3858 43.081 37.8233C43.6426 37.2607 43.9577 36.4981 43.957 35.7032C43.9577 34.9084 43.6426 34.1458 43.081 33.5832C42.5195 33.0206 41.7575 32.7041 40.9626 32.7033H37.9688V35.7032C37.9688 37.3598 39.3091 38.7031 40.9626 38.7031ZM40.9626 30.7034H48.9473C50.6004 30.7034 51.9412 29.3601 51.9412 27.703C51.9418 26.9081 51.6268 26.1456 51.0652 25.583C50.5037 25.0204 49.7417 24.7039 48.9468 24.7031H40.9626C39.3091 24.7031 37.9688 26.0464 37.9688 27.703C37.9684 28.0966 38.0455 28.4864 38.1957 28.8501C38.346 29.2139 38.5664 29.5444 38.8444 29.823C39.1224 30.1016 39.4526 30.3227 39.816 30.4736C40.1794 30.6246 40.5691 30.7025 40.9626 30.7029" fill="#ECB22E"/>
<path d="M22 27.703C21.9996 28.0966 22.0767 28.4864 22.227 28.8501C22.3772 29.2139 22.5976 29.5444 22.8756 29.823C23.1536 30.1016 23.4838 30.3227 23.8472 30.4736C24.2107 30.6246 24.6003 30.7025 24.9939 30.7029C25.7887 30.7021 26.5508 30.3856 27.1123 29.823C27.6738 29.2605 27.9889 28.4979 27.9883 27.703V24.7031H24.9939C23.3403 24.7031 22 26.0464 22 27.703ZM29.9842 27.703V35.7027C29.9842 37.3598 31.3245 38.7031 32.9781 38.7031C33.7729 38.7023 34.5349 38.3858 35.0965 37.8233C35.658 37.2607 35.9731 36.4981 35.9724 35.7032V27.703C35.9728 27.3094 35.8957 26.9196 35.7454 26.5558C35.5951 26.192 35.3747 25.8614 35.0966 25.5828C34.8186 25.3043 34.4883 25.0832 34.1248 24.9323C33.7613 24.7813 33.3716 24.7035 32.9781 24.7031C31.3245 24.7031 29.9842 26.0464 29.9842 27.703Z" fill="#E01E5A"/>
</svg>
