<svg width="164" height="48" viewBox="0 0 164 48" fill="none" xmlns="http://www.w3.org/2000/svg">
<path d="M61.2464 21.4076C61.2464 19.346 59.1848 17.1469 55.7488 17.1469C51.9005 17.1469 47.5024 20.0332 46.8152 25.8057C46.128 31.5782 49.7014 34.1896 53.4123 34.1896C57.1232 34.1896 58.91 32.8152 60.8341 30.891C59.1848 28.8294 56.9858 29.7915 56.5735 29.9289C56.1611 30.2038 55.4739 30.4787 54.3744 30.4787C53 30.4787 51.4881 29.7915 51.4881 27.1801C60.5592 26.218 61.2464 23.4692 61.2464 21.4076ZM56.8483 21.6825C56.8483 22.3697 56.5735 23.4692 52.0379 24.019C53 20.5829 54.7867 20.3081 55.6114 20.3081C56.436 20.4455 56.8483 20.9953 56.8483 21.6825ZM41.5924 22.2322C41.5924 22.2322 39.6682 28.2796 39.5308 28.8294C39.5308 28.2796 38.019 17.4218 38.019 17.4218C34.7204 17.4218 32.9336 19.7583 32.109 22.2322C32.109 22.2322 29.7725 28.2796 29.6351 28.8294C29.4976 28.4171 29.2227 22.3697 29.2227 22.3697C28.9479 19.346 26.1991 17.4218 24 17.4218L26.7488 33.9147C30.1848 33.9147 32.109 31.5782 33.0711 29.1043C33.0711 29.1043 35.1327 23.7441 35.2701 23.4692C35.2701 23.7441 36.782 33.9147 36.782 33.9147C40.218 33.9147 42.1422 31.7156 43.1043 29.3791L47.9147 17.4218C44.3412 17.4218 42.5545 19.7583 41.5924 22.2322ZM74.0284 17.0095C71.9668 17.0095 70.3175 18.109 68.9431 19.8957L70.0427 10C67.1564 10 64.9573 12.4739 64.4076 16.0474L62.2085 33.7772C63.8578 33.7772 65.5071 33.3649 66.4692 32.128C67.2938 33.2275 68.5308 34.0521 70.3175 34.0521C75.128 34.0521 78.4265 28.5545 78.4265 23.3318C78.564 18.5213 76.2275 17.0095 74.0284 17.0095ZM73.4787 25.5308C72.9289 28.4171 71.4171 30.3412 69.7678 30.3412C68.2559 30.3412 67.5687 29.654 67.5687 29.654C67.8436 27.1801 68.1185 25.5308 68.6682 24.1564C69.218 22.782 70.5924 20.7204 71.9668 20.7204C73.3412 20.8578 74.0284 22.6446 73.4787 25.5308ZM90.5213 17.4218H87.2227V17.2844C87.4976 15.0853 87.91 13.9858 89.6967 13.8483C90.7962 13.7109 91.346 13.1611 91.4834 12.4739C91.6208 11.9242 91.8957 10.1374 91.8957 10.1374C85.1611 10.1374 83.0995 13.0237 82.5498 17.4218V17.5592H82.4123C81.3128 17.5592 80.0758 18.7962 79.9384 20.3081L79.8009 20.8578H82L80.0758 36.2512L79.5261 39C79.6635 39 79.6635 39 79.8009 39C82.9621 38.8626 84.8863 36.3886 85.436 32.8152L86.9479 20.7204H88.0474C89.0095 20.7204 90.2465 19.7583 90.5213 17.9716V17.4218ZM107.839 17.1469C103.991 17.1469 100.417 20.0332 99.3175 24.4313C98.218 28.8294 99.8673 34.1896 105.502 34.1896C111.137 34.1896 114.436 28.6919 114.436 24.1564C114.299 19.6209 111.275 17.1469 107.839 17.1469ZM109.351 25.3934C109.213 27.455 108.251 30.4787 105.777 30.4787C103.303 30.4787 103.716 26.9052 103.853 25.2559C104.128 23.4692 105.09 20.8578 107.289 20.8578C109.351 20.8578 109.626 23.1943 109.351 25.3934ZM133.403 22.2322C133.403 22.2322 131.479 28.2796 131.341 28.8294C131.341 28.2796 129.829 17.4218 129.829 17.4218C126.531 17.4218 124.744 19.7583 123.919 22.2322C123.919 22.2322 121.583 28.2796 121.446 28.8294C121.446 28.4171 121.033 22.3697 121.033 22.3697C120.896 19.346 118.009 17.5592 115.81 17.5592L118.559 34.0521C121.995 34.0521 123.919 31.7156 124.882 29.2417C124.882 29.2417 126.943 23.8815 127.081 23.6066C127.081 23.8815 128.592 34.0521 128.592 34.0521C132.028 34.0521 133.953 31.8531 134.915 29.5166L139.45 17.4218C136.014 17.4218 134.227 19.7583 133.403 22.2322ZM93.6825 10.1374L90.9336 32.6777L90.3839 35.4265C90.5213 35.4265 90.5213 35.4265 90.6588 35.4265C93.6825 35.4265 95.8815 32.6777 96.1564 29.3791L97.8057 16.4597C98.218 12.6114 95.7441 10.1374 93.6825 10.1374Z" fill="#1B1B1B"/>
</svg>
