<svg width="164" height="48" viewBox="0 0 164 48" fill="none" xmlns="http://www.w3.org/2000/svg">
<path d="M33.0004 3.0791C21.4024 3.0791 12 12.4813 12 24.0792C12 35.6777 21.4024 45.0791 33.0004 45.0791C44.5996 45.0791 54.001 35.6777 54.001 24.0792C54.001 12.482 44.5996 3.0801 33.0001 3.0801L33.0004 3.0791ZM42.631 33.3673C42.2549 33.9842 41.4474 34.1798 40.8305 33.8011C35.8998 30.7894 29.6927 30.1073 22.3827 31.7774C21.6783 31.9379 20.9761 31.4966 20.8156 30.7919C20.6544 30.0872 21.094 29.3851 21.8002 29.2246C29.7998 27.3969 36.6617 28.1839 42.1972 31.5668C42.8141 31.9454 43.0097 32.7504 42.631 33.3673ZM45.2014 27.6492C44.7275 28.4196 43.7194 28.6628 42.9495 28.1889C37.3046 24.7192 28.6999 23.7144 22.0231 25.7411C21.1572 26.0026 20.2426 25.5146 19.9798 24.6502C19.719 23.7843 20.2073 22.8715 21.0717 22.6082C28.6984 20.2941 38.1798 21.415 44.6623 25.3985C45.4321 25.8725 45.6754 26.8806 45.2014 27.6495V27.6492ZM45.4221 21.6949C38.6538 17.6748 27.4869 17.3051 21.0248 19.2664C19.9871 19.5811 18.8897 18.9953 18.5752 17.9576C18.2608 16.9194 18.8461 15.8228 19.8845 15.5073C27.3026 13.2554 39.6343 13.6905 47.4268 18.3165C48.3622 18.8704 48.6681 20.0759 48.1139 21.008C47.5622 21.9414 46.3535 22.2491 45.4231 21.6949H45.4221ZM69.1351 22.4653C65.5089 21.6006 64.8645 20.9937 64.8645 19.7186C64.8645 18.5139 65.9979 17.7031 67.6856 17.7031C69.3207 17.7031 70.9407 18.3187 72.6409 19.5861C72.691 19.6245 72.7562 19.6398 72.8189 19.6298C72.8841 19.6203 72.9393 19.5854 72.9769 19.533L74.7474 17.0373C74.8201 16.9345 74.8 16.7928 74.7022 16.7143C72.6785 15.0911 70.4015 14.3019 67.7383 14.3019C63.8238 14.3019 61.0878 16.6514 61.0878 20.013C61.0878 23.6178 63.4476 24.8942 67.5251 25.8795C70.9933 26.6787 71.5801 27.3483 71.5801 28.545C71.5801 29.8716 70.3965 30.6966 68.4906 30.6966C66.3741 30.6966 64.6463 29.9819 62.7153 28.3118C62.6677 28.2691 62.6025 28.2516 62.5423 28.2541C62.4771 28.2591 62.4194 28.2892 62.3793 28.3368L60.3932 30.6991C60.3104 30.7994 60.3205 30.9449 60.4158 31.0301C62.6627 33.0363 65.4262 34.0945 68.4104 34.0945C72.6283 34.0945 75.3542 31.79 75.3542 28.2215C75.3618 25.2105 73.5587 23.5428 69.1426 22.4685L69.1351 22.4653ZM84.8986 18.8893C83.0705 18.8893 81.5709 19.6095 80.3321 21.0853V19.4242C80.3321 19.293 80.2267 19.1862 80.0963 19.1862H76.8488C76.7184 19.1862 76.6131 19.293 76.6131 19.4242V37.8812C76.6131 38.0116 76.7184 38.1194 76.8488 38.1194H80.0963C80.2267 38.1194 80.3321 38.0116 80.3321 37.8812V32.0558C81.5709 33.4425 83.0705 34.1221 84.8986 34.1221C88.2966 34.1221 91.7372 31.5066 91.7372 26.5064C91.7422 21.5053 88.3016 18.889 84.9011 18.889L84.8986 18.8893ZM87.9605 26.5064C87.9605 29.0515 86.3932 30.8295 84.1463 30.8295C81.927 30.8295 80.2518 28.9713 80.2518 26.5064C80.2518 24.0414 81.927 22.1836 84.1463 22.1836C86.3556 22.1834 87.9605 24.001 87.9605 26.5062V26.5064ZM100.552 18.8893C96.1758 18.8893 92.7478 22.2586 92.7478 26.5609C92.7478 30.817 96.1533 34.1497 100.499 34.1497C104.89 34.1497 108.328 30.7919 108.328 26.5064C108.328 22.2356 104.913 18.8898 100.552 18.8898V18.8893ZM100.552 30.8546C98.2246 30.8546 96.4692 28.9838 96.4692 26.5052C96.4692 24.0153 98.1645 22.2085 100.499 22.2085C102.841 22.2085 104.607 24.0785 104.607 26.5596C104.607 29.049 102.902 30.8546 100.552 30.8546ZM117.672 19.1862H114.098V15.5334C114.098 15.4025 113.993 15.2957 113.863 15.2957H110.615C110.485 15.2957 110.377 15.4025 110.377 15.5334V19.1862H108.817C108.687 19.1862 108.582 19.293 108.582 19.4242V22.2145C108.582 22.3454 108.687 22.4525 108.817 22.4525H110.377V29.6734C110.377 32.5899 111.829 34.0695 114.695 34.0695C115.859 34.0695 116.824 33.8287 117.735 33.3121C117.81 33.272 117.855 33.1918 117.855 33.1065V30.4483C117.855 30.3681 117.812 30.2903 117.742 30.2477C117.672 30.2026 117.584 30.2001 117.511 30.2377C116.887 30.5511 116.283 30.6966 115.606 30.6966C114.565 30.6966 114.098 30.2226 114.098 29.1644V22.4537H117.672C117.802 22.4537 117.908 22.3469 117.908 22.2157V19.4257C117.913 19.2945 117.807 19.1877 117.674 19.1877L117.672 19.1862ZM130.12 19.2005V18.7518C130.12 17.432 130.627 16.8435 131.76 16.8435C132.437 16.8435 132.982 16.9779 133.591 17.181C133.666 17.2046 133.744 17.1928 133.804 17.1479C133.867 17.103 133.902 17.031 133.902 16.9548V14.2189C133.902 14.1143 133.837 14.0218 133.734 13.9909C133.092 13.7996 132.269 13.6032 131.036 13.6032C128.039 13.6032 126.452 15.2919 126.452 18.485V19.1721H124.892C124.761 19.1721 124.653 19.279 124.653 19.4099V22.2145C124.653 22.3454 124.761 22.4525 124.892 22.4525H126.452V33.588C126.452 33.7209 126.559 33.8262 126.69 33.8262H129.935C130.068 33.8262 130.173 33.7209 130.173 33.588V22.4532H133.205L137.849 33.588C137.322 34.7566 136.803 34.9898 136.096 34.9898C135.524 34.9898 134.92 34.8193 134.306 34.4807C134.248 34.4506 134.178 34.4456 134.118 34.4632C134.055 34.4858 134.002 34.5309 133.977 34.5911L132.876 37.006C132.824 37.1214 132.869 37.2543 132.979 37.3145C134.128 37.9364 135.163 38.2022 136.445 38.2022C138.842 38.2022 140.169 37.0837 141.335 34.0795L146.967 19.5255C146.997 19.4522 146.987 19.3695 146.942 19.3045C146.899 19.2401 146.827 19.2012 146.749 19.2012H143.369C143.266 19.2012 143.175 19.2657 143.143 19.3607L139.68 29.2496L135.888 19.3542C135.853 19.2622 135.765 19.2012 135.667 19.2012H130.12V19.2005ZM122.903 19.1862H119.656C119.525 19.1862 119.417 19.293 119.417 19.4242V33.588C119.417 33.7209 119.525 33.8262 119.656 33.8262H122.903C123.033 33.8262 123.141 33.7209 123.141 33.588V19.4252C123.141 19.294 123.036 19.1872 122.903 19.1872V19.1862ZM121.298 12.7366C120.012 12.7366 118.968 13.7778 118.968 15.064C118.968 16.3509 120.012 17.3934 121.298 17.3934C122.585 17.3934 123.625 16.3509 123.625 15.064C123.625 13.778 122.582 12.7366 121.298 12.7366ZM149.741 23.7404C148.457 23.7404 147.456 22.7085 147.456 21.4554C147.456 20.2023 148.469 19.1586 149.753 19.1586C151.037 19.1586 152.038 20.1903 152.038 21.4424C152.038 22.6955 151.025 23.7404 149.741 23.7404ZM149.753 19.3858C148.582 19.3858 147.697 20.3161 147.697 21.4554C147.697 22.5942 148.577 23.512 149.741 23.512C150.912 23.512 151.797 22.5824 151.797 21.4424C151.797 20.3036 150.917 19.3858 149.753 19.3858ZM150.26 21.6773L150.907 22.5821H150.36L149.778 21.7521H149.279V22.5821H148.823V20.1837H149.891C150.45 20.1837 150.816 20.4689 150.816 20.9488C150.819 21.3421 150.591 21.5823 150.262 21.6773H150.26ZM149.874 20.5953H149.279V21.3538H149.874C150.17 21.3538 150.348 21.2086 150.348 20.9742C150.348 20.7274 150.17 20.5953 149.874 20.5953Z" fill="#1ED760"/>
</svg>
