<svg width="48" height="48" viewBox="0 0 48 48" fill="none" xmlns="http://www.w3.org/2000/svg">
<path d="M8 14C8 8.47716 12.4772 4 18 4C23.5228 4 28 8.47716 28 14C28 19.5228 23.5228 24 18 24C12.4772 24 8 19.5228 8 14Z" fill="#142249"/>
<path d="M29.3009 22.2648C28.7877 22.9654 29.1311 24 29.9995 24C35.5225 24 39.9995 19.5228 39.9995 14C39.9995 8.47716 35.5225 4 29.9995 4C29.1311 4 28.7877 5.03468 29.3009 5.73522C30.9977 8.05148 31.9995 10.9087 31.9995 14C31.9995 17.0913 30.9977 19.9485 29.3009 22.2648Z" fill="#142249"/>
<path d="M39.9995 44C38.8949 44 37.9995 43.1046 37.9995 42V38C37.9995 35.0006 37.0111 32.0572 35.2407 29.6602C34.7623 29.0124 35.1941 28 35.9995 28C38.6517 28 41.1953 29.0536 43.0707 30.929C44.9459 32.8042 45.9995 35.3478 45.9995 38V42C45.9995 43.1046 45.1041 44 43.9995 44H39.9995Z" fill="#142249"/>
<path d="M4.92894 30.929C6.8043 29.0536 9.34784 28 12 28H24C26.6522 28 29.1958 29.0536 31.071 30.929C32.9464 32.8042 34 35.3478 34 38V42C34 43.1046 33.1046 44 32 44H4C2.89544 44 2 43.1046 2 42V38C2 35.3478 3.05356 32.8042 4.92894 30.929Z" fill="#142249"/>
</svg>
