<svg width="32" height="32" viewBox="0 0 32 32" fill="none" xmlns="http://www.w3.org/2000/svg">
<path fill-rule="evenodd" clip-rule="evenodd" d="M12.3875 27.9066C10.4563 27.9066 8.89062 26.341 8.89062 24.4097V7.78695C8.89062 5.85566 10.4563 4.29004 12.3875 4.29004H21.6082C21.7978 4.29004 21.8285 4.58114 21.6612 4.67034C20.4281 5.32803 20.0998 7.13682 21.3083 8.15155L21.8238 8.58444L21.6612 9.2377C21.2026 11.0796 23.2182 12.544 24.8282 11.5387L25.3993 11.1821L25.9703 11.5387C26.4796 11.8567 27.0294 11.9276 27.5288 11.8176C27.7837 11.7614 28.067 11.9337 28.067 12.1948V24.4097C28.067 26.341 26.5013 27.9066 24.5701 27.9066H12.3875ZM19.3843 21.6598V22.4794C19.3843 22.9531 19.0003 23.3371 18.5266 23.3371C18.0529 23.3371 17.6689 22.9531 17.6689 22.4794V21.6579C16.8206 21.4995 15.9848 21.1148 15.3506 20.5087C15.0082 20.1813 14.996 19.6384 15.3234 19.2959C15.6507 18.9535 16.1936 18.9413 16.5361 19.2686C17.055 19.7648 17.8845 20.0508 18.6518 20.0236C19.428 19.9961 19.8839 19.6783 20.037 19.2669C20.2074 18.8087 20.1647 18.447 19.9432 18.1066C19.6919 17.7204 19.1508 17.2748 18.1409 16.8558C17.0339 16.3966 16.1364 15.7989 15.6277 15.0131C15.0788 14.1655 15.0537 13.2097 15.4905 12.284C15.9147 11.3851 16.7565 10.8395 17.6689 10.6389V9.71717C17.6689 9.24344 18.0529 8.85944 18.5266 8.85944C19.0003 8.85944 19.3843 9.24344 19.3843 9.71717V10.6472C20.0131 10.7856 20.6356 11.0741 21.1892 11.5261C21.5562 11.8257 21.6108 12.366 21.3112 12.733C21.0117 13.1 20.4713 13.1546 20.1044 12.855C19.5117 12.3711 18.8131 12.2087 18.2221 12.2826C17.6205 12.3578 17.211 12.658 17.0419 13.0161C16.8332 13.4584 16.8722 13.7789 17.0676 14.0808C17.3032 14.4446 17.8301 14.8696 18.7983 15.2713C19.9633 15.7547 20.863 16.3746 21.3811 17.1712C21.9291 18.0135 21.9845 18.9519 21.6448 19.8651C21.2499 20.9263 20.3334 21.4692 19.3843 21.6598Z" fill="#0F1224"/>
<path d="M5.17926 10.4922C3.97679 10.4922 3.00195 11.467 3.00195 12.6695V23.2403C3.00195 24.4428 3.97679 25.4176 5.17926 25.4176H6.39262C6.86632 25.4176 7.25035 25.0336 7.25035 24.5599V11.3499C7.25035 10.8762 6.86632 10.4922 6.39262 10.4922H5.17926Z" fill="#0F1224"/>
<path d="M25.0323 4.40077C25.1657 4.07084 25.6328 4.07084 25.7662 4.40077L26.3276 5.78871C26.3843 5.92895 26.5159 6.02459 26.6668 6.03521L28.1603 6.14012C28.5153 6.16506 28.6597 6.60936 28.3871 6.83821L27.2406 7.80092C27.1247 7.8982 27.0744 8.05296 27.111 8.19976L27.4727 9.65253C27.5586 9.9979 27.1807 10.2725 26.8789 10.084L25.6089 9.29103C25.4806 9.21093 25.3179 9.21093 25.1896 9.29103L23.9197 10.084C23.6178 10.2725 23.2399 9.9979 23.3259 9.65253L23.6876 8.19976C23.7241 8.05296 23.6738 7.8982 23.558 7.80092L22.4114 6.83821C22.1389 6.60933 22.2832 6.16506 22.6382 6.14012L24.1317 6.03521C24.2826 6.02459 24.4143 5.92895 24.471 5.78871L25.0323 4.40077Z" fill="#0F1224"/>
</svg>
