<svg width="29" height="29" viewBox="0 0 29 29" fill="none" xmlns="http://www.w3.org/2000/svg">
<g clip-path="url(#clip0_11353_4567)">
<path d="M14.3125 0C6.54626 0 0.25 6.29626 0.25 14.0625C0.25 21.8287 6.54626 28.125 14.3125 28.125C22.0787 28.125 28.375 21.8287 28.375 14.0625C28.375 6.29626 22.0787 0 14.3125 0Z" fill="#142249"/>
<path d="M14.4773 24.7379H14.4711C11.2857 24.7163 8.83677 23.6661 7.1914 21.6155C5.7267 19.7909 4.97167 17.2521 4.94629 14.0705V14.0551C4.97167 10.8727 5.7267 8.33467 7.1914 6.51012C8.836 4.45952 11.2857 3.40923 14.4703 3.3877H14.4826C16.9246 3.40385 18.9675 4.03199 20.5552 5.25301C22.0476 6.40097 23.0978 8.03711 23.6776 10.1169L21.863 10.6229C20.8812 7.10064 18.3962 5.29992 14.4764 5.27147C11.8884 5.28992 9.93161 6.10341 8.65912 7.68884C7.46738 9.17354 6.85148 11.318 6.82918 14.0621C6.85225 16.8069 7.46809 18.9513 8.65912 20.4353C9.93161 22.0207 11.8884 22.8342 14.4764 22.8526C16.8092 22.8357 18.3531 22.2921 19.6372 21.0343C21.1026 19.5987 21.0757 17.838 20.6067 16.767C20.3307 16.1357 19.8293 15.6098 19.1535 15.2115C18.9836 16.4125 18.6014 17.3875 18.011 18.1218C17.2236 19.102 16.1072 19.638 14.694 19.7141C13.6245 19.7717 12.5942 19.5189 11.7946 19.0014C10.8489 18.3893 10.2953 17.4528 10.236 16.3641C10.1784 15.3054 10.5982 14.3319 11.4178 13.623C12.2013 12.9456 13.3031 12.5482 14.6048 12.4751C15.5644 12.4213 16.4616 12.4636 17.2912 12.602C17.1813 11.9415 16.9584 11.4179 16.6262 11.0396C16.1694 10.5191 15.4628 10.2531 14.5271 10.2469H14.501C13.7498 10.2469 12.7295 10.4529 12.079 11.4202L10.5159 10.3691C11.3863 9.0751 12.8002 8.36313 14.5002 8.36313H14.5386C17.3812 8.38082 19.0735 10.1192 19.2419 13.1555C19.3387 13.1963 19.4334 13.2385 19.5271 13.2824C20.8534 13.906 21.823 14.8502 22.332 16.0127C23.0409 17.6335 23.1063 20.2746 20.9542 22.3813C19.3103 23.9913 17.3143 24.7179 14.4825 24.7372H14.4764L14.4771 24.7379H14.4773ZM15.3692 14.3373C15.1539 14.3373 14.9355 14.3434 14.7125 14.3565C13.0787 14.4488 12.0607 15.1969 12.1184 16.2625C12.1791 17.379 13.4109 17.8979 14.5942 17.8341C15.6836 17.7756 17.1015 17.352 17.339 14.5333C16.7378 14.405 16.0766 14.3372 15.3692 14.3372V14.3373Z" fill="#38D2D9"/>
</g>
<defs>
<clipPath id="clip0_11353_4567">
<rect width="28.125" height="28.125" fill="white" transform="translate(0.25)"/>
</clipPath>
</defs>
</svg>
