<svg width="48" height="48" viewBox="0 0 48 48" fill="none" xmlns="http://www.w3.org/2000/svg">
<path d="M43.1517 24.0006L34.4017 21.0665C34.1417 20.9778 33.8583 20.9778 33.5983 21.0665L24.8483 24.0006C24.34 24.1698 24 24.638 24 25.167V31.7677C24 39.824 33.1233 43.7404 33.5117 43.9031C33.6683 43.9671 33.8333 44 34 44C34.1667 44 34.3317 43.9671 34.4883 43.9014C34.8767 43.7388 44 39.824 44 31.7677V25.167C44 24.638 43.66 24.1698 43.1517 24.0006ZM39.4767 30.2301L34.8933 35.9799C34.31 36.7142 33.2167 36.821 32.4983 36.2131L29.5817 33.7489C28.8817 33.1592 28.8 32.1209 29.4017 31.4326C30 30.7443 31.0533 30.6654 31.75 31.2552L33.3467 32.6039L36.855 28.2029C37.4233 27.4899 38.47 27.3634 39.195 27.9269C39.92 28.4838 40.0467 29.5171 39.4767 30.2301Z" fill="#142249"/>
<path d="M35.9545 4H9.04545C6.25868 4 4 6.46217 4 9.5C4 12.5378 6.25868 15 9.04545 15H35.9545C38.7413 15 41 12.5378 41 9.5C41 6.46217 38.7413 4 35.9545 4ZM9.04545 11.3333C8.11709 11.3333 7.36364 10.512 7.36364 9.5C7.36364 8.488 8.11709 7.66667 9.04545 7.66667C9.97382 7.66667 10.7273 8.488 10.7273 9.5C10.7273 10.512 9.97382 11.3333 9.04545 11.3333ZM15.7727 11.3333C14.8444 11.3333 14.0909 10.512 14.0909 9.5C14.0909 8.488 14.8444 7.66667 15.7727 7.66667C16.7011 7.66667 17.4545 8.488 17.4545 9.5C17.4545 10.512 16.7011 11.3333 15.7727 11.3333Z" fill="#142249"/>
<path d="M9.16667 17C6.30778 17 4 19.2333 4 22C4 24.7667 6.30778 27 9.16667 27H21.2222V24.5667C21.2222 22.6 22.5139 20.85 24.4428 20.2167L33.4672 17.25C33.9667 17.0833 34.4833 17 35 17H9.16667ZM9.16667 23.6667C8.21944 23.6667 7.44444 22.9167 7.44444 22C7.44444 21.0833 8.21944 20.3333 9.16667 20.3333C10.1139 20.3333 10.8889 21.0833 10.8889 22C10.8889 22.9167 10.1139 23.6667 9.16667 23.6667ZM16.0556 23.6667C15.1083 23.6667 14.3333 22.9167 14.3333 22C14.3333 21.0833 15.1083 20.3333 16.0556 20.3333C17.0028 20.3333 17.7778 21.0833 17.7778 22C17.7778 22.9167 17.0028 23.6667 16.0556 23.6667Z" fill="#142249"/>
<path d="M20.7084 31.9167V31H9.01253C6.23893 31 4 33.2333 4 36C4 38.7667 6.23893 41 9.01253 41H24C22.0785 38.5667 20.7084 35.5167 20.7084 31.9167ZM9.01253 37.6667C8.09357 37.6667 7.34169 36.9167 7.34169 36C7.34169 35.0833 8.09357 34.3333 9.01253 34.3333C9.9315 34.3333 10.6834 35.0833 10.6834 36C10.6834 36.9167 9.9315 37.6667 9.01253 37.6667ZM15.6959 37.6667C14.7769 37.6667 14.0251 36.9167 14.0251 36C14.0251 35.0833 14.7769 34.3333 15.6959 34.3333C16.6149 34.3333 17.3667 35.0833 17.3667 36C17.3667 36.9167 16.6149 37.6667 15.6959 37.6667Z" fill="#142249"/>
</svg>
