<svg width="29" height="29" viewBox="0 0 29 29" fill="none" xmlns="http://www.w3.org/2000/svg">
<path fill-rule="evenodd" clip-rule="evenodd" d="M14.0173 0.426758C16.5526 0.455688 18.843 1.07878 20.8884 2.29604C22.9095 3.489 24.5907 5.18052 25.7714 7.20883C26.9812 9.26662 27.6006 11.5709 27.6294 14.1216C27.5575 17.6116 26.4568 20.5924 24.3271 23.064C22.1974 25.5356 19.4697 27.0646 16.6461 27.6508V17.866H19.3156L19.9193 14.0208H15.8771V11.5022C15.8546 10.9801 16.0198 10.4672 16.3426 10.0563C16.6658 9.64418 17.2351 9.42759 18.0504 9.40649H20.4913V6.03817C20.4563 6.0269 20.124 5.98234 19.4943 5.90449C18.7803 5.82094 18.0621 5.77632 17.3432 5.77081C15.716 5.77832 14.4292 6.23731 13.4826 7.1478C12.5359 8.05803 12.0524 9.37495 12.0319 11.0985V14.0208H8.95572V17.866H12.0319V27.6508C8.56489 27.0646 5.83725 25.5356 3.70755 23.064C1.57786 20.5924 0.477135 17.6116 0.405273 14.1216C0.434025 11.5708 1.05335 9.26651 2.26326 7.20883C3.44389 5.18052 5.12514 3.489 7.14623 2.29604C9.19164 1.07902 11.482 0.455923 14.0173 0.426758Z" fill="#142249"/>
</svg>
