<svg width="29" height="29" viewBox="0 0 29 29" fill="none" xmlns="http://www.w3.org/2000/svg">
<g clip-path="url(#clip0_11353_4578)">
<path d="M23.523 20.3342H23.3467V19.9766H23.5697C23.6851 19.9766 23.8169 19.9958 23.8169 20.1463C23.8169 20.3199 23.684 20.3342 23.523 20.3342Z" fill="#142249"/>
<path d="M23.512 19.5167C23.0319 19.5244 22.6495 19.9204 22.6572 20.4C22.6655 20.8801 23.061 21.2629 23.5411 21.2547H23.5636C24.0333 21.2443 24.4057 20.8553 24.3958 20.3857V20.3714C24.3876 19.8913 23.9921 19.5084 23.512 19.5167ZM23.8267 20.9141L23.5372 20.4587L23.5328 20.4532H23.3461V20.9141H23.1945V19.8567H23.5982C23.8481 19.8567 23.9701 19.9534 23.9701 20.155C23.9701 20.161 23.9706 20.1671 23.9701 20.1731C23.969 20.322 23.874 20.4428 23.6773 20.4428L23.9893 20.9141H23.8267ZM23.512 19.5167C23.0319 19.5244 22.6495 19.9204 22.6572 20.4C22.6655 20.8801 23.061 21.2629 23.5411 21.2547H23.5636C24.0333 21.2443 24.4057 20.8553 24.3958 20.3857V20.3714C24.3876 19.8913 23.9921 19.5084 23.512 19.5167ZM23.8267 20.9141L23.5372 20.4587L23.5328 20.4532H23.3461V20.9141H23.1945V19.8567H23.5982C23.8481 19.8567 23.9701 19.9534 23.9701 20.155C23.9701 20.161 23.9706 20.1671 23.9701 20.1731C23.969 20.322 23.874 20.4428 23.6773 20.4428L23.9893 20.9141H23.8267ZM14.5625 0C6.79626 0 0.5 6.29626 0.5 14.0625C0.5 21.8287 6.79626 28.125 14.5625 28.125C22.3287 28.125 28.625 21.8287 28.625 14.0625C28.625 6.29626 22.3287 0 14.5625 0ZM22.0145 20.2165C22.0063 20.8032 21.5245 21.2728 20.9373 21.2657H8.54913C7.96356 21.2717 7.48346 20.8021 7.47632 20.2165V7.77667C7.48346 7.1911 7.96356 6.72198 8.54913 6.72858H20.9373V6.72803C21.524 6.72034 22.0063 7.1889 22.0145 7.77557V20.2165ZM23.5603 21.3684C23.0126 21.3734 22.5644 20.9339 22.5594 20.3868C22.554 19.8391 22.9934 19.3909 23.5411 19.3859H23.5603C24.1003 19.3909 24.537 19.8276 24.5419 20.3676C24.5474 20.9152 24.1074 21.3629 23.5603 21.3684ZM23.512 19.5167C23.0319 19.5244 22.6495 19.9204 22.6572 20.4C22.6655 20.8801 23.061 21.2629 23.5411 21.2547H23.5636C24.0333 21.2443 24.4057 20.8553 24.3958 20.3857V20.3714C24.3876 19.8913 23.9921 19.5084 23.512 19.5167ZM23.8267 20.9141L23.5372 20.4587L23.5328 20.4532H23.3461V20.9141H23.1945V19.8567H23.5982C23.8481 19.8567 23.9701 19.9534 23.9701 20.155C23.9701 20.161 23.9706 20.1671 23.9701 20.1731C23.969 20.322 23.874 20.4428 23.6773 20.4428L23.9893 20.9141H23.8267ZM17.2789 12.0048C16.4439 11.974 15.66 12.4047 15.2382 13.1254H15.2096V12.1778H13.1414V19.1146H15.2958V15.683C15.2958 14.7777 15.4672 13.9016 16.5889 13.9016C17.6953 13.9016 17.7095 14.937 17.7095 15.7412V19.1151H19.8634L19.8645 15.3094C19.8645 13.4412 19.4619 12.0048 17.2789 12.0048ZM9.63184 19.1151H11.7879V12.1778H9.63184V19.1151ZM10.7107 8.72919C10.0202 8.72919 9.46045 9.28894 9.46045 9.97943C9.46045 10.6699 10.0208 11.2291 10.7107 11.2291C11.4012 11.2291 11.9609 10.6694 11.9609 9.97888C11.9604 9.28839 11.4006 8.72919 10.7107 8.72919Z" fill="#142249"/>
</g>
<defs>
<clipPath id="clip0_11353_4578">
<rect width="28.125" height="28.125" fill="white" transform="translate(0.5)"/>
</clipPath>
</defs>
</svg>
