<svg width="29" height="29" viewBox="0 0 29 29" fill="none" xmlns="http://www.w3.org/2000/svg">
<g clip-path="url(#clip0_11353_4563)">
<path d="M14.1875 0C6.42126 0 0.125 6.29626 0.125 14.0625C0.125 21.8287 6.42126 28.125 14.1875 28.125C21.9537 28.125 28.25 21.8287 28.25 14.0625C28.25 6.29626 21.9537 0 14.1875 0Z" fill="#142249"/>
<path d="M15.7264 12.7897L21.7464 5.79199H20.3199L15.0927 11.868L10.9178 5.79199H6.10254L12.4158 14.98L6.10254 22.3183H7.52917L13.0492 15.9017L17.4582 22.3183H22.2735L15.7261 12.7897H15.7264ZM8.04319 6.86595H10.2344L20.3205 21.2932H18.1293L8.04319 6.86595Z" fill="#38D2D9"/>
</g>
<defs>
<clipPath id="clip0_11353_4563">
<rect width="28.125" height="28.125" fill="white" transform="translate(0.125)"/>
</clipPath>
</defs>
</svg>
