<svg width="24" height="24" viewBox="0 0 24 24" fill="none" xmlns="http://www.w3.org/2000/svg">
<g clip-path="url(#clip0_11358_9356)">
<path d="M16.7098 9.8904H12.7026V4.36426L7.28906 14.1091H11.2963V19.6353L16.7098 9.8904Z" fill="#38D2D9"/>
<path d="M5.71289 20.4257L5.44786 16.0903L4.46939 17.0866C3.62808 15.6798 2.8125 14.328 2.8125 11.9882C2.8125 10.4613 3.23292 9.014 3.99652 7.72405L1.84842 8.14512L1.94925 5.71484C0.702703 7.56345 0 9.73705 0 11.9882C0 14.7475 0.868078 16.729 2.29134 18.8231L1.27509 19.6642L5.71289 20.4257Z" fill="#38D2D9"/>
<path d="M17.7877 1.62872C16.0442 0.574312 14.0735 0 12.0007 0C9.04078 0 6.78637 1.04147 4.62061 2.74041L3.56316 1.85053L3.375 6.38719L7.98994 5.48217L6.77114 4.55381C8.178 3.70219 9.52322 2.83308 11.9903 2.83308C13.272 2.83308 14.5026 3.12389 15.6201 3.65156L15.1626 1.62872H17.7877Z" fill="#38D2D9"/>
<path d="M20.7947 4.09275L21.9902 3.07031H16.9688L17.9699 7.49709L19.1049 6.38475C20.1238 7.791 21.1875 9.33666 21.1875 11.9884C21.1875 13.1103 20.9593 14.2079 20.5324 15.2299L21.8892 14.7254L22.1663 18.1286C23.3623 16.3037 24 14.2036 24 11.9884C24 8.718 22.7765 6.37983 20.7947 4.09275Z" fill="#38D2D9"/>
<path d="M20.591 16.749L16.2185 18.375L17.5018 19.2313C16.0955 20.1494 14.6843 21.1422 12.0354 21.1422C10.2272 21.1422 8.52136 20.5856 7.1138 19.5938L7.27148 22.1708L5.38477 21.8471C7.29698 23.2421 9.59241 24 11.9997 24C15.2452 24 17.6578 22.7664 19.8694 20.8085L20.9865 21.605L20.591 16.749Z" fill="#38D2D9"/>
</g>
<defs>
<clipPath id="clip0_11358_9356">
<rect width="24" height="24" fill="white"/>
</clipPath>
</defs>
</svg>
