<svg width="17" height="16" viewBox="0 0 17 16" fill="none" xmlns="http://www.w3.org/2000/svg">
<path d="M11.8333 11.3337H9.16667M14.4926 6.66699C14.5 7.05168 14.5 7.4913 14.5 8.00033C14.5 9.86717 14.5 10.8006 14.1367 11.5136C13.8171 12.1408 13.3072 12.6508 12.68 12.9703C11.9669 13.3337 11.0335 13.3337 9.16667 13.3337H7.83333C5.96649 13.3337 5.03307 13.3337 4.32003 12.9703C3.69282 12.6508 3.18289 12.1408 2.86331 11.5136C2.5 10.8006 2.5 9.86717 2.5 8.00033C2.5 7.4913 2.5 7.05168 2.50736 6.66699M14.4926 6.66699C14.473 5.64085 14.4009 5.00564 14.1367 4.48702C13.8171 3.85982 13.3072 3.34988 12.68 3.0303C11.9669 2.66699 11.0335 2.66699 9.16667 2.66699H7.83333C5.96649 2.66699 5.03307 2.66699 4.32003 3.0303C3.69282 3.34988 3.18289 3.85982 2.86331 4.48702C2.59906 5.00564 2.52701 5.64085 2.50736 6.66699M14.4926 6.66699H2.50736" stroke="#2D264B" stroke-width="1.5" stroke-linecap="round"/>
</svg>
