<svg width="17" height="16" viewBox="0 0 17 16" fill="none" xmlns="http://www.w3.org/2000/svg">
<path d="M3.55879 5.18441L4.28495 5.37199L3.55879 5.18441ZM5.892 2.98837L6.03326 3.72495L5.892 2.98837ZM7.26843 8.80055L7.05683 8.08102L7.26843 8.80055ZM8.00625 9.53837L7.28672 9.32678L8.00625 9.53837ZM11.6224 13.248L11.81 13.9742L11.6224 13.248ZM13.8184 10.9148L14.555 11.0561L13.8184 10.9148ZM14.9882 4.81544L14.2516 4.67417V4.67417L14.9882 4.81544ZM11.9914 1.81861L11.8501 1.08203L11.9914 1.81861ZM4.32669 11.4195C4.0338 11.7124 4.0338 12.1872 4.32669 12.4801C4.61959 12.773 5.09446 12.773 5.38735 12.4801L4.32669 11.4195ZM6.33016 11.5373C6.62305 11.2444 6.62305 10.7696 6.33016 10.4767C6.03727 10.1838 5.56239 10.1838 5.2695 10.4767L6.33016 11.5373ZM4.7981 13.7765C4.5052 14.0694 4.5052 14.5443 4.7981 14.8372C5.09099 15.13 5.56586 15.13 5.85876 14.8372L4.7981 13.7765ZM6.80157 13.8943C7.09446 13.6015 7.09446 13.1266 6.80157 12.8337C6.50867 12.5408 6.0338 12.5408 5.74091 12.8337L6.80157 13.8943ZM1.96967 10.9481C1.67678 11.241 1.67678 11.7158 1.96967 12.0087C2.26256 12.3016 2.73744 12.3016 3.03033 12.0087L1.96967 10.9481ZM3.97314 11.0659C4.26603 10.773 4.26603 10.2981 3.97314 10.0053C3.68025 9.71236 3.20537 9.71236 2.91248 10.0053L3.97314 11.0659ZM14.2516 4.67417L13.0819 10.7736L14.555 11.0561L15.7248 4.9567L14.2516 4.67417ZM6.03326 3.72495L12.1326 2.55519L11.8501 1.08203L5.75073 2.2518L6.03326 3.72495ZM4.28495 5.37199C4.50199 4.53183 5.18566 3.8875 6.03326 3.72495L5.75073 2.2518C4.32918 2.52443 3.19348 3.59992 2.83263 4.99682L4.28495 5.37199ZM7.05683 8.08102C5.41134 8.56492 3.85097 7.05199 4.28495 5.37199L2.83263 4.99682C2.1123 7.78529 4.69785 10.3383 7.48003 9.52008L7.05683 8.08102ZM8.72578 9.74996C9.02596 8.72921 8.07759 7.78084 7.05683 8.08102L7.48003 9.52008C7.36179 9.55485 7.25195 9.445 7.28672 9.32678L8.72578 9.74996ZM11.4348 12.5219C9.75482 12.9559 8.24188 11.3955 8.72578 9.74996L7.28672 9.32678C6.46856 12.109 9.02151 14.6945 11.81 13.9742L11.4348 12.5219ZM13.0819 10.7736C12.9193 11.6212 12.275 12.3048 11.4348 12.5219L11.81 13.9742C13.2069 13.6133 14.2824 12.4776 14.555 11.0561L13.0819 10.7736ZM15.7248 4.9567C16.1655 2.65876 14.148 0.641326 11.8501 1.08203L12.1326 2.55519C13.3893 2.31417 14.4926 3.41747 14.2516 4.67417L15.7248 4.9567ZM5.38735 12.4801L6.33016 11.5373L5.2695 10.4767L4.32669 11.4195L5.38735 12.4801ZM5.85876 14.8372L6.80157 13.8943L5.74091 12.8337L4.7981 13.7765L5.85876 14.8372ZM3.03033 12.0087L3.97314 11.0659L2.91248 10.0053L1.96967 10.9481L3.03033 12.0087Z" fill="#2D264B"/>
</svg>
