<svg width="33" height="33" viewBox="0 0 33 33" fill="none" xmlns="http://www.w3.org/2000/svg">
<path d="M20.8267 8.73828H12.1738V24.2878H20.8267V8.73828Z" fill="#FF5F00"/>
<path d="M12.7232 16.514C12.7218 15.0165 13.0611 13.5383 13.7155 12.1913C14.3699 10.8443 15.3222 9.66385 16.5002 8.73928C15.0414 7.5926 13.2893 6.8795 11.4444 6.68148C9.59943 6.48346 7.73598 6.80851 6.06703 7.61948C4.39808 8.43045 2.99096 9.69462 2.00651 11.2675C1.02206 12.8404 0.5 14.6585 0.5 16.514C0.5 18.3696 1.02206 20.1877 2.00651 21.7606C2.99096 23.3335 4.39808 24.5976 6.06703 25.4086C7.73598 26.2196 9.59943 26.5446 11.4444 26.3466C13.2893 26.1486 15.0414 25.4355 16.5002 24.2888C15.3222 23.3642 14.3699 22.1838 13.7155 20.8368C13.0612 19.4898 12.7218 18.0116 12.7232 16.514Z" fill="#EB001B"/>
<path d="M32.4997 16.514C32.4998 18.3696 31.9778 20.1877 30.9934 21.7606C30.009 23.3334 28.6019 24.5976 26.933 25.4086C25.2641 26.2196 23.4007 26.5446 21.5557 26.3466C19.7108 26.1486 17.9588 25.4355 16.5 24.2888C17.677 23.3633 18.6285 22.1827 19.2828 20.8359C19.9371 19.4891 20.277 18.0113 20.277 16.514C20.277 15.0167 19.9371 13.539 19.2828 12.1922C18.6285 10.8454 17.677 9.66478 16.5 8.73928C17.9588 7.5926 19.7108 6.87949 21.5557 6.68148C23.4007 6.48346 25.2641 6.80852 26.933 7.6195C28.6019 8.43048 30.009 9.69465 30.9934 11.2675C31.9778 12.8404 32.4998 14.6585 32.4997 16.514Z" fill="#F79E1B"/>
<path d="M31.556 22.6416V22.3233H31.6843V22.2584H31.3574V22.3233H31.4858V22.6416H31.556ZM32.1907 22.6416V22.2578H32.0904L31.9752 22.5218L31.8599 22.2578H31.7596V22.6416H31.8304V22.3521L31.9385 22.6017H32.0119L32.1199 22.3515V22.6416H32.1907Z" fill="#F79E1B"/>
</svg>
