<svg width="131" height="126" viewBox="0 0 131 126" fill="none" xmlns="http://www.w3.org/2000/svg">
<path d="M124.25 66.001C124.25 58.2202 122.73 50.5155 119.778 43.327C116.825 36.1384 112.498 29.6068 107.043 24.1049C101.587 18.603 95.1105 14.2387 87.9827 11.2611C80.8548 8.28352 73.2152 6.75098 65.5 6.75098C57.7848 6.75097 50.1453 8.28351 43.0174 11.2611C35.8895 14.2387 29.4129 18.603 23.9575 24.1049C18.5021 29.6067 14.1746 36.1384 11.2221 43.327C8.26962 50.5155 6.75 58.2201 6.75 66.0009" stroke="#F2F4F7" stroke-width="13.5" stroke-linecap="round" stroke-linejoin="round"/>
<path d="M6.75 66.001C6.75 57.9068 8.39446 49.8984 11.5819 42.47C14.7694 35.0415 19.4322 28.3504 25.2829 22.8096C31.1335 17.2687 38.0478 12.9956 45.5991 10.2538C53.1505 7.51198 61.1789 6.35965 69.1889 6.86789" stroke="#ABF266" stroke-width="13.5" stroke-linecap="round" stroke-linejoin="round"/>
</svg>
