<svg width="20" height="20" viewBox="0 0 20 20" fill="none" xmlns="http://www.w3.org/2000/svg">
<path opacity="0.4" d="M18.484 11.3837C18.359 10.0087 17.9923 8.54199 15.3173 8.54199H4.68397C2.00897 8.54199 1.65064 10.0087 1.51731 11.3837L1.05064 16.4587C0.992308 17.092 1.20064 17.7253 1.63397 18.2003C2.07564 18.6837 2.70064 18.9587 3.36731 18.9587H4.93397C6.28397 18.9587 6.54231 18.1837 6.70897 17.6753L6.87564 17.1753C7.06731 16.6003 7.11731 16.4587 7.86731 16.4587H12.134C12.884 16.4587 12.909 16.542 13.1256 17.1753L13.2923 17.6753C13.459 18.1837 13.7173 18.9587 15.0673 18.9587H16.634C17.2923 18.9587 17.9256 18.6837 18.3673 18.2003C18.8006 17.7253 19.009 17.092 18.9506 16.4587L18.484 11.3837Z" fill="#0A0A0B"/>
<path d="M17.5 6.04173H16.6667C16.6583 6.04173 16.6583 6.04173 16.65 6.04173L16.3333 4.5334C16.0333 3.07507 15.4083 1.7334 12.925 1.7334H10.625H9.375H7.075C4.59167 1.7334 3.96667 3.07507 3.66667 4.5334L3.35 6.04173C3.34167 6.04173 3.34167 6.04173 3.33333 6.04173H2.5C2.15833 6.04173 1.875 6.32507 1.875 6.66673C1.875 7.0084 2.15833 7.29173 2.5 7.29173H3.09167L2.74167 8.9584C3.19167 8.70007 3.81667 8.54173 4.68333 8.54173H15.3167C16.1833 8.54173 16.8083 8.70007 17.2583 8.9584L16.9083 7.29173H17.5C17.8417 7.29173 18.125 7.0084 18.125 6.66673C18.125 6.32507 17.8417 6.04173 17.5 6.04173Z" fill="#0A0A0B"/>
<path d="M7.5 13.125H5C4.65833 13.125 4.375 12.8417 4.375 12.5C4.375 12.1583 4.65833 11.875 5 11.875H7.5C7.84167 11.875 8.125 12.1583 8.125 12.5C8.125 12.8417 7.84167 13.125 7.5 13.125Z" fill="#0A0A0B"/>
<path d="M15 13.125H12.5C12.1583 13.125 11.875 12.8417 11.875 12.5C11.875 12.1583 12.1583 11.875 12.5 11.875H15C15.3417 11.875 15.625 12.1583 15.625 12.5C15.625 12.8417 15.3417 13.125 15 13.125Z" fill="#0A0A0B"/>
</svg>
